<svg preserveAspectRatio="none" overflow="visible" style="display: block;" width="15" height="16" viewBox="0 0 15 16" fill="none" xmlns="http://www.w3.org/2000/svg">
<g id="Image">
<path id="Vector" d="M11.9531 4.25V10.3438C11.9531 10.5302 11.8791 10.7091 11.7472 10.8409C11.6153 10.9728 11.4365 11.0469 11.25 11.0469C11.0635 11.0469 10.8847 10.9728 10.7527 10.8409C10.6209 10.7091 10.5469 10.5302 10.5469 10.3438V5.94922L4.24744 12.2474C4.11534 12.3795 3.9362 12.4538 3.74939 12.4538C3.56258 12.4538 3.38343 12.3795 3.25134 12.2474C3.11925 12.1153 3.04505 11.9362 3.04505 11.7494C3.04505 11.5626 3.11925 11.3834 3.25134 11.2513L9.55078 4.95312H5.15622C4.96974 4.95312 4.7909 4.87904 4.65904 4.74718C4.52718 4.61533 4.4531 4.43648 4.4531 4.25C4.4531 4.06352 4.52718 3.88468 4.65904 3.75282C4.7909 3.62096 4.96974 3.54688 5.15622 3.54688H11.25C11.4365 3.54688 11.6153 3.62096 11.7472 3.75282C11.8791 3.88468 11.9531 4.06352 11.9531 4.25Z" fill="white"/>
</g>
</svg>
