<svg preserveAspectRatio="none" overflow="visible" style="display: block;" width="300" height="300" viewBox="0 0 300 300" fill="none" xmlns="http://www.w3.org/2000/svg">
<g id="Image">
<path id="Vector" d="M262.125 77.5195L159 21.0936C156.245 19.5711 153.147 18.7726 150 18.7726C146.853 18.7726 143.755 19.5711 141 21.0936L37.875 77.5429C34.93 79.1543 32.4715 81.5267 30.7565 84.4127C29.0414 87.2986 28.1326 90.5921 28.125 93.9491V206.028C28.1326 209.384 29.0414 212.678 30.7565 215.564C32.4715 218.45 34.93 220.823 37.875 222.434L141 278.883C143.755 280.405 146.853 281.204 150 281.204C153.147 281.204 156.245 280.405 159 278.883L262.125 222.434C265.07 220.823 267.529 218.45 269.244 215.564C270.959 212.678 271.867 209.384 271.875 206.028V93.9609C271.874 90.5978 270.967 87.297 269.252 84.4044C267.537 81.5117 265.075 79.1337 262.125 77.5195ZM150 37.4999L244.16 89.0624L209.261 108.152L115.102 56.5898L150 37.4999ZM150 140.625L55.8399 89.0624L95.5781 67.3007L189.739 118.863L150 140.625ZM253.125 206.074L159.375 257.39V156.833L196.875 136.313V178.125C196.875 180.611 197.863 182.996 199.621 184.754C201.379 186.512 203.764 187.5 206.25 187.5C208.736 187.5 211.121 186.512 212.879 184.754C214.637 182.996 215.625 180.611 215.625 178.125V126.046L253.125 105.527V206.028V206.074Z" fill="#F3F3F3"/>
</g>
</svg>
